<?xml version="1.0" encoding="utf-8"?>
<!-- Generator: Adobe Illustrator 22.1.0, SVG Export Plug-In . SVG Version: 6.00 Build 0)  -->
<svg version="1.1" id="Слой_1" xmlns="http://www.w3.org/2000/svg" xmlns:xlink="http://www.w3.org/1999/xlink" x="0px" y="0px"
	 viewBox="0 0 26 26" style="enable-background:new 0 0 26 26;" xml:space="preserve">
<g>
	<path d="M20.8,15.4c-0.5,0-0.9-0.4-0.9-0.9V8.1c0-0.5,0.4-0.9,0.9-0.9s0.9,0.4,0.9,0.9v6.4C21.7,15,21.3,15.4,20.8,15.4z"/>
	<path d="M24,12.2h-6.4c-0.5,0-0.9-0.4-0.9-0.9s0.4-0.9,0.9-0.9H24c0.5,0,0.9,0.4,0.9,0.9S24.5,12.2,24,12.2z"/>
	<path d="M10.7,13C8,13,5.8,10.8,5.8,8.1S8,3.2,10.7,3.2s4.9,2.2,4.9,4.9S13.4,13,10.7,13z M10.7,5C9,5,7.6,6.4,7.6,8.1
		s1.4,3.1,3.1,3.1s3.1-1.4,3.1-3.1S12.4,5,10.7,5z"/>
	<path d="M18,22.8H3.4c-0.5,0-0.9-0.4-0.9-0.9c0-4.5,3.7-8.2,8.2-8.2s8.2,3.7,8.2,8.2C18.9,22.4,18.5,22.8,18,22.8z M4.4,21H17
		c-0.4-3.1-3.1-5.5-6.3-5.5S4.8,17.9,4.4,21z"/>
</g>
</svg>
