<?xml version="1.0" encoding="utf-8"?>
<!-- Generator: Adobe Illustrator 22.1.0, SVG Export Plug-In . SVG Version: 6.00 Build 0)  -->
<svg version="1.1" id="Camada_1" xmlns="http://www.w3.org/2000/svg" xmlns:xlink="http://www.w3.org/1999/xlink" x="0px" y="0px"
	 viewBox="0 0 24 24" style="enable-background:new 0 0 24 24;" xml:space="preserve">
<path d="M13,20v-5h-2v5c0,1.1-0.9,2-2,2H6c-1.1,0-2-0.9-2-2v-7.6l-0.3,0.3c-0.4,0.4-1,0.5-1.4,0.1s-0.5-1-0.1-1.4
	c0,0,0.1-0.1,0.1-0.1l9-9c0.4-0.4,1-0.4,1.4,0l9,9c0.4,0.4,0.3,1-0.1,1.4c-0.4,0.3-0.9,0.3-1.3,0L20,12.4V20c0,1.1-0.9,2-2,2h-3
	C13.9,22,13,21.1,13,20z M18,20v-9.6l-6-6l-6,6V20h3v-5c0-1.1,0.9-2,2-2h2c1.1,0,2,0.9,2,2v5H18z"/>
</svg>
