<?xml version="1.0" encoding="utf-8"?>
<!-- Generator: Adobe Illustrator 22.1.0, SVG Export Plug-In . SVG Version: 6.00 Build 0)  -->
<svg version="1.1" id="Modo_de_isolamento" xmlns="http://www.w3.org/2000/svg" xmlns:xlink="http://www.w3.org/1999/xlink" x="0px"
	 y="0px" viewBox="0 0 32 32" style="enable-background:new 0 0 32 32;" xml:space="preserve">
<path d="M9.6,27.2H5c-0.6,0-1-0.4-1-1v-9.4c0-0.6,0.4-1,1-1h4.6c0.6,0,1,0.4,1,1v9.4C10.6,26.8,10.2,27.2,9.6,27.2z M6,25.2h2.6
	v-7.4H6V25.2z"/>
<path d="M17.9,27.1h-4.6c-0.6,0-1-0.4-1-1V11.3c0-0.6,0.4-1,1-1h4.6c0.6,0,1,0.4,1,1v14.8C18.9,26.7,18.5,27.1,17.9,27.1z
	 M14.3,25.1h2.6V12.3h-2.6V25.1z"/>
<path d="M27.1,27.2h-4.6c-0.6,0-1-0.4-1-1V5.1c0-0.6,0.4-1,1-1h4.6c0.6,0,1,0.4,1,1v21.1C28.1,26.8,27.7,27.2,27.1,27.2z M23.5,25.2
	h2.6V6.1h-2.6V25.2z"/>
</svg>
