<?xml version="1.0" encoding="utf-8"?>
<!-- Generator: Adobe Illustrator 22.1.0, SVG Export Plug-In . SVG Version: 6.00 Build 0)  -->
<svg version="1.1" id="Modo_de_isolamento" xmlns="http://www.w3.org/2000/svg" xmlns:xlink="http://www.w3.org/1999/xlink" x="0px"
	 y="0px" viewBox="0 0 32 32" style="enable-background:new 0 0 32 32;" xml:space="preserve">
<g>
	<g>
		<path d="M21.6,13c-3.2,0-6.5-1.2-6.5-3.5S18.4,6,21.6,6s6.5,1.2,6.5,3.5S24.8,13,21.6,13z M21.6,8c-2.9,0-4.5,1.1-4.5,1.5
			c0,0.4,1.6,1.5,4.5,1.5s4.5-1.1,4.5-1.5C26.1,9,24.5,8,21.6,8z"/>
	</g>
	<g>
		<path d="M21.6,17c-3.2,0-6.5-1.2-6.5-3.5v-4h2v4c0,0.4,1.6,1.5,4.5,1.5s4.5-1.1,4.5-1.5v-4h2v4C28.1,15.8,24.8,17,21.6,17z"/>
	</g>
	<g>
		<path d="M21.6,21c-3.2,0-6.5-1.2-6.5-3.5v-4h2v4c0,0.4,1.6,1.5,4.5,1.5s4.5-1.1,4.5-1.5v-4h2v4C28.1,19.8,24.8,21,21.6,21z"/>
	</g>
	<g>
		<path d="M21.6,25c-3.2,0-6.5-1.2-6.5-3.5v-4h2v4c0,0.4,1.6,1.5,4.5,1.5s4.5-1.1,4.5-1.5v-4h2v4C28.1,23.8,24.8,25,21.6,25z"/>
	</g>
	<g>
		<path d="M10.6,20c-3.2,0-6.5-1.2-6.5-3.5S7.4,13,10.6,13s6.5,1.2,6.5,3.5S13.8,20,10.6,20z M10.6,15c-2.9,0-4.5,1.1-4.5,1.5
			c0,0.4,1.6,1.5,4.5,1.5s4.5-1.1,4.5-1.5C15.1,16.1,13.5,15,10.6,15z"/>
	</g>
	<g>
		<path d="M10.6,24c-3.2,0-6.5-1.2-6.5-3.5v-4h2v4c0,0.4,1.6,1.5,4.5,1.5s4.5-1.1,4.5-1.5v-4h2v4C17.1,22.8,13.8,24,10.6,24z"/>
	</g>
	<g>
		<path d="M10.6,28c-3.2,0-6.5-1.2-6.5-3.5v-4h2v4c0,0.4,1.6,1.5,4.5,1.5s4.5-1.1,4.5-1.5v-4h2v4C17.1,26.8,13.8,28,10.6,28z"/>
	</g>
</g>
</svg>
