<svg height="511.99931pt" viewBox="1 1 511.99931 511.99931" width="511.99931pt" xmlns="http://www.w3.org/2000/svg"><path d="m256 0c-141.386719 0-256 114.613281-256 256 0 141.382812 114.613281 256 256 256 141.382812 0 256-114.617188 256-256-.167969-141.316406-114.683594-255.832031-256-256zm223.183594 240h-207.183594v-207.183594c110.917969 8.054688 199.128906 96.265625 207.183594 207.183594zm-447.183594 16c.183594-117.386719 90.914062-214.746094 208-223.183594v223.183594c0 4.25 1.695312 8.328125 4.703125 11.328125l157.761719 157.761719c-93.195313 81.074218-234.472656 71.25-315.546875-21.949219-35.492188-40.796875-55-93.066406-54.917969-147.140625zm393.089844 146.464844-130.464844-130.464844h184.558594c-3.398438 48.207031-22.386719 93.996094-54.09375 130.464844zm0 0"/></svg>